<svg id="Flat" height="512" viewBox="0 0 512 512" width="512" xmlns="http://www.w3.org/2000/svg"><path d="m496 440v56h-480v-112a31.9946 31.9946 0 0 1 28.03-31.75 30.67847 30.67847 0 0 1 3.97-.25 31.87559 31.87559 0 0 1 12.3 2.45 56.02981 56.02981 0 0 1 102.31-2.45h77.39a40.00094 40.00094 0 0 1 68.98 8.75 39.69717 39.69717 0 0 1 3.02 15.25v.49a65.95125 65.95125 0 0 1 8-.49 63.99511 63.99511 0 0 1 64 64z" fill="#8acce7"/><path d="m283.32007 392h-11.32007l-88-8-88 8h-16v-8a65.00994 65.00994 0 0 0 54.9-29.97l1.43006-2.22q5.93994-9.24018 12.11994-18.32a55.96387 55.96387 0 0 1 14.16 18.51h77.39a40.09823 40.09823 0 0 1 16.9-13.05 70.94371 70.94371 0 0 0 20.75989 47.38989z" fill="#379ec3"/><path d="m80 392a73.26654 73.26654 0 0 0 61.63024-33.64711l1.426-2.21818a842.41254 842.41254 0 0 1 112.9437-140.13465l.00006-.00006 40 40-24.00006 24.00006a79.19588 79.19588 0 0 0 0 111.99988l.00006.00006z" fill="#8acce7"/><path d="m392 192v38.05891a81.941 81.941 0 0 1 -24 57.94109l-32-32v-32z" fill="#e44042"/><path d="m320 120h-38.05891a81.94105 81.94105 0 0 0 -57.94109 24l32 32h32z" fill="#e44042"/><path d="m488 24v27.02a147.28989 147.28989 0 0 1 -7.04 44.98c-1.23 3.83984-2.62988 7.62988-4.16992 11.35986a147.25373 147.25373 0 0 1 -31.91 47.76026 316.77617 316.77617 0 0 1 -123.83003 76.52978l-1.05005.3501-24 24-40-40 24-24 .35-1.05a316.92564 316.92564 0 0 1 76.53-123.82988 147.22212 147.22212 0 0 1 104.1-43.12012z" fill="#eedc9a"/><path d="m271.029 195.716h33.941v56.569h-33.941z" fill="#eebe33" transform="matrix(.707 -.707 .707 .707 -74.039 269.255)"/><path d="m488 24v27.02a147.28989 147.28989 0 0 1 -7.04 44.98 60.78414 60.78414 0 0 1 -42.76-17.8l-4.3999-4.3999a60.78414 60.78414 0 0 1 -17.8001-42.7601 147.28869 147.28869 0 0 1 44.98-7.04z" fill="#e44042"/><circle cx="376" cy="136" fill="#8acce7" r="40"/><g fill="#379ec3"><path d="m234.90967 291.44629-14.43946-6.89258a118.58771 118.58771 0 0 1 23.2461-32.83789l9.37207-9.37207 11.31445 11.3125-9.37256 9.373a102.63578 102.63578 0 0 0 -20.1206 28.41704z"/><path d="m225.92139 321.14258-15.83594-2.28516a119.86366 119.86366 0 0 1 3.7749-17.14746l15.33008 4.58004a103.95707 103.95707 0 0 0 -3.26904 14.85258z"/><path d="m60.30005 354.45a55.6609 55.6609 0 0 0 -4.30005 21.55h-16a71.59832 71.59832 0 0 1 4.03-23.75 30.67847 30.67847 0 0 1 3.97-.25 31.87559 31.87559 0 0 1 12.30005 2.45z"/><path d="m104 480h-16a32.0028 32.0028 0 0 0 -51.19775-25.60449l-9.61133-12.791a48.00232 48.00232 0 0 1 76.80908 38.39549z"/><path d="m83.14014 448.43262-14.73633-6.23242a56.03111 56.03111 0 0 1 79.60205-26.70313l-8.01172 13.84961a40.03109 40.03109 0 0 0 -56.854 19.08594z"/><path d="m276.811 474.666-15.085-5.332a40.00793 40.00793 0 0 0 -64.39062-43.15039l-10.6709-11.92187a56.016 56.016 0 0 1 90.14652 60.40426z"/><path d="m312 376v.49a63.51733 63.51733 0 0 0 -16 4.15991l-6-14.82983a79.35421 79.35421 0 0 1 18.98-5.07008 39.69717 39.69717 0 0 1 3.02 15.25z"/></g><path d="m376 184a48 48 0 1 1 48-48 48.05405 48.05405 0 0 1 -48 48zm0-80a32 32 0 1 0 32 32 32.03635 32.03635 0 0 0 -32-32z" fill="#e44042"/></svg>